PathFileType	4	(X/Y/Z) shrug_2kg_2.trc																										
DataRate	CameraRate	NumFrames	NumMarkers	Units	OrigDataRate	OrigDataStartFrame	OrigNumFrames																					
100	100	24	9	mm	100	61	480																					
Frame#	Time	gu			centelbow			EpL			centpxt8			centijc7			ij			ts			aa			ai		
		X1	Y1	Z1	X2	Y2	Z2	X3	Y3	Z3	X4	Y4	Z4	X5	Y5	Z5	X6	Y6	Z6	X7	Y7	Z7	X8	Y8	Z8	X9	Y9	Z9  
60	0.6	-84.121	-16.075	164.607	-115.724	-260.388	181.836	-100.381	-256.357	209.903	-46.816	-153.158	-8.669	-46.816	31.938	-8.669	0	0	0	-136.303	28.873	50.053	-110.148	20.134	166.089	-159.344	-82.258	52.235
61	0.61	-84.3	-15.877	164.666	-115.842	-260.196	181.923	-100.498	-256.158	209.988	-46.816	-153.158	-8.669	-46.816	31.938	-8.669	0	0	0	-136.364	29.156	50.268	-110.258	20.435	166.317	-159.383	-81.979	52.452
62	0.62	-84.352	-15.938	164.633	-115.919	-260.253	181.903	-100.568	-256.216	209.966	-46.816	-153.158	-8.669	-46.816	31.938	-8.669	0	0	0	-136.42	29.234	50.38	-110.348	20.524	166.436	-159.439	-81.901	52.566
63	0.63	-84.27	-16.055	164.56	-115.864	-260.365	181.838	-100.506	-256.331	209.897	-46.816	-153.158	-8.669	-46.816	31.938	-8.669	0	0	0	-136.446	29.19	50.276	-110.355	20.487	166.329	-159.473	-81.943	52.475
64	0.64	-84.196	-16.125	164.496	-115.788	-260.434	181.791	-100.425	-256.398	209.847	-46.816	-153.158	-8.669	-46.816	31.938	-8.669	0	0	0	-136.455	29.12	50.026	-110.306	20.417	166.066	-159.496	-82.01	52.24
65	0.65	-84.221	-16.118	164.498	-115.797	-260.428	181.817	-100.433	-256.389	209.871	-46.816	-153.158	-8.669	-46.816	31.938	-8.669	0	0	0	-136.458	29.069	49.805	-110.256	20.357	165.832	-159.518	-82.057	52.026
66	0.66	-84.29	-16.07	164.617	-115.853	-260.381	181.949	-100.488	-256.339	210.002	-46.816	-153.158	-8.669	-46.816	31.938	-8.669	0	0	0	-136.455	29.021	49.753	-110.242	20.299	165.777	-159.533	-82.102	51.971
67	0.67	-84.335	-16.115	164.803	-115.91	-260.424	182.132	-100.547	-256.383	210.187	-46.816	-153.158	-8.669	-46.816	31.938	-8.669	0	0	0	-136.464	28.949	49.875	-110.283	20.225	165.907	-159.548	-82.172	52.086
68	0.68	-84.402	-16.26	164.955	-116.015	-260.564	182.287	-100.656	-256.525	210.344	-46.816	-153.158	-8.669	-46.816	31.938	-8.669	0	0	0	-136.524	28.905	50.037	-110.384	20.187	166.077	-159.607	-82.216	52.245
69	0.69	-84.533	-16.326	165.031	-116.169	-260.625	182.391	-100.813	-256.584	210.449	-46.816	-153.158	-8.669	-46.816	31.938	-8.669	0	0	0	-136.653	28.93	50.088	-110.522	20.224	166.131	-159.738	-82.19	52.305
70	0.7	-84.609	-16.259	165.066	-116.245	-260.556	182.467	-100.889	-256.509	210.524	-46.816	-153.158	-8.669	-46.816	31.938	-8.669	0	0	0	-136.764	28.969	50.057	-110.619	20.274	166.099	-159.858	-82.149	52.291
71	0.71	-84.519	-16.187	165.05	-116.158	-260.481	182.473	-100.799	-256.433	210.529	-46.816	-153.158	-8.669	-46.816	31.938	-8.669	0	0	0	-136.747	28.987	50.079	-110.6	20.298	166.12	-159.845	-82.13	52.319
72	0.72	-84.344	-16.167	164.892	-115.986	-260.461	182.325	-100.618	-256.413	210.377	-46.816	-153.158	-8.669	-46.816	31.938	-8.669	0	0	0	-136.641	28.991	50.149	-110.515	20.305	166.195	-159.736	-82.127	52.388
73	0.73	-84.204	-16.163	164.664	-115.825	-260.458	182.113	-100.447	-256.409	210.159	-46.816	-153.158	-8.669	-46.816	31.938	-8.669	0	0	0	-136.579	28.919	50.164	-110.476	20.239	166.216	-159.674	-82.199	52.403
74	0.74	-84.141	-16.165	164.621	-115.721	-260.465	182.085	-100.341	-256.412	210.128	-46.816	-153.158	-8.669	-46.816	31.938	-8.669	0	0	0	-136.615	28.738	50.097	-110.53	20.061	166.154	-159.719	-82.378	52.339
75	0.75	-84.174	-16.132	164.842	-115.723	-260.435	182.305	-100.347	-256.38	210.351	-46.816	-153.158	-8.669	-46.816	31.938	-8.669	0	0	0	-136.707	28.588	50.035	-110.638	19.911	166.094	-159.819	-82.526	52.274
76	0.76	-84.281	-15.978	165.138	-115.815	-260.283	182.6	-100.444	-256.226	210.647	-46.816	-153.158	-8.669	-46.816	31.938	-8.669	0	0	0	-136.781	28.611	50.057	-110.732	19.93	166.121	-159.898	-82.503	52.29
77	0.77	-84.374	-15.772	165.349	-115.904	-260.077	182.826	-100.533	-256.018	210.874	-46.816	-153.158	-8.669	-46.816	31.938	-8.669	0	0	0	-136.808	28.73	50.115	-110.781	20.054	166.184	-159.928	-82.383	52.349
78	0.78	-84.372	-15.706	165.466	-115.916	-260.006	182.985	-100.54	-255.943	211.03	-46.816	-153.158	-8.669	-46.816	31.938	-8.669	0	0	0	-136.792	28.799	50.093	-110.784	20.147	166.168	-159.914	-82.313	52.347
79	0.79	-84.283	-15.803	165.512	-115.858	-260.094	183.093	-100.478	-256.027	211.134	-46.816	-153.158	-8.669	-46.816	31.938	-8.669	0	0	0	-136.75	28.834	49.941	-110.755	20.223	166.022	-159.867	-82.279	52.231
80	0.8	-84.184	-15.918	165.508	-115.786	-260.202	183.142	-100.399	-256.132	211.18	-46.816	-153.158	-8.669	-46.816	31.938	-8.669	0	0	0	-136.725	28.905	49.706	-110.738	20.337	165.793	-159.824	-82.21	52.031
81	0.81	-84.121	-15.944	165.481	-115.727	-260.225	183.159	-100.335	-256.15	211.193	-46.816	-153.158	-8.669	-46.816	31.938	-8.669	0	0	0	-136.759	28.976	49.522	-110.785	20.441	165.613	-159.837	-82.144	51.871
82	0.82	-84.106	-15.902	165.438	-115.704	-260.179	183.175	-100.308	-256.099	211.205	-46.816	-153.158	-8.669	-46.816	31.938	-8.669	0	0	0	-136.833	28.966	49.475	-110.884	20.462	165.575	-159.898	-82.155	51.845
83	0.83	-84.169	-15.904	165.401	-115.776	-260.173	183.223	-100.374	-256.084	211.25	-46.816	-153.158	-8.669	-46.816	31.938	-8.669	0	0	0	-136.897	28.911	49.465	-110.971	20.433	165.572	-159.966	-82.209	51.857
